<svg id="visual" viewBox="0 0 900 600" width="900" height="600" xmlns="http://www.w3.org/2000/svg" xmlns:xlink="http://www.w3.org/1999/xlink" version="1.1"><path d="M455 0L417.5 14.3C380 28.7 305 57.3 286.2 85.8C267.3 114.3 304.7 142.7 333 171.2C361.3 199.7 380.7 228.3 399.7 257C418.7 285.7 437.3 314.3 441.8 343C446.3 371.7 436.7 400.3 408.5 428.8C380.3 457.3 333.7 485.7 346.8 514.2C360 542.7 433 571.3 469.5 585.7L506 600L0 600L0 585.7C0 571.3 0 542.7 0 514.2C0 485.7 0 457.3 0 428.8C0 400.3 0 371.7 0 343C0 314.3 0 285.7 0 257C0 228.3 0 199.7 0 171.2C0 142.7 0 114.3 0 85.8C0 57.3 0 28.7 0 14.3L0 0Z" fill="#dbc1ac" stroke-linecap="round" stroke-linejoin="miter"></path></svg>